PathFileType	4	(X/Y/Z)	Walk_125 04
DataRate	CameraRate	NumFrames	NumMarkers	Units	OrigDataRate	OrigDataStartFrame	OrigNumFrames
120	120	6	42	mm	120	102	128
Frame#	Time	LASI			RASI			LPSI			RPSI			RTH1			RTH2			RTH3			LTH1			LTH2			LTH3			RTB1			RTB2			RTB3			LTB1			LTB2			LTB3			RCAL			RTOE			RMT5			LCAL			LTOE			LMT5			LACR			RACR			CLAV			C7			RUA1			RUA2			RUA3			RLEL			RMEL			LUA1			LUA2			LUA3			LLEL			LMEL			RFAsuperior			RFAradius			RFAulna			LFAsuperior			LFAradius			LFAulna		
		X1	Y1	Z1	X2	Y2	Z2	X3	Y3	Z3	X4	Y4	Z4	X5	Y5	Z5	X6	Y6	Z6	X7	Y7	Z7	X8	Y8	Z8	X9	Y9	Z9	X10	Y10	Z10	X11	Y11	Z11	X12	Y12	Z12	X13	Y13	Z13	X14	Y14	Z14	X15	Y15	Z15	X16	Y16	Z16	X17	Y17	Z17	X18	Y18	Z18	X19	Y19	Z19	X20	Y20	Z20	X21	Y21	Z21	X22	Y22	Z22	X23	Y23	Z23	X24	Y24	Z24	X25	Y25	Z25	X26	Y26	Z26	X27	Y27	Z27	X28	Y28	Z28	X29	Y29	Z29	X30	Y30	Z30	X31	Y31	Z31	X32	Y32	Z32	X33	Y33	Z33	X34	Y34	Z34	X35	Y35	Z35	X36	Y36	Z36	X37	Y37	Z37	X38	Y38	Z38	X39	Y39	Z39	X40	Y40	Z40	X41	Y41	Z41	X42	Y42	Z42	

102	  0.850000	889.210857	1066.786879	-612.465329	875.039879	1073.608615	-352.370061	699.615397	1081.654952	-522.970675	694.764437	1076.920313	-440.909552	847.397092	897.737129	-296.965569	934.304723	812.895968	-308.982585	902.190540	684.370453	-342.303774	783.633275	858.639119	-663.005946	799.669151	731.930253	-649.888152	700.596121	640.163955	-635.477283	1059.628439	417.329878	-422.817870	1060.871694	347.691720	-356.946198	1089.639289	253.221292	-423.944292	639.591294	404.664368	-579.071913	561.795199	354.544212	-630.294966	505.174476	254.210491	-565.232815	1013.331459	 99.986136	-431.713011	1246.202521	 85.422382	-453.753332	1181.373530	 56.043791	-362.863062	332.026185	210.146432	-555.995052	513.832813	 65.919522	-529.330261	441.330652	 72.769693	-618.335568	830.688581	1525.751467	-656.999731	793.094822	1529.762225	-312.290117	872.388214	1485.589407	-445.523114	743.376391	1567.082488	-489.754091	764.126720	1419.732071	-242.322601	761.000374	1326.762250	-252.508359	685.613343	1318.708574	-240.092361	650.450105	1187.008335	-219.833631	650.204949	1182.210229	-292.696853	836.521066	1425.041731	-726.133510	863.320037	1356.537069	-712.865722	781.330655	1311.305984	-725.383175	830.255625	1154.213985	-761.643147	791.898936	1140.702267	-696.211618	685.135581	1103.255057	-173.092605	734.941437	920.366476	-180.618313	667.844073	929.251588	-149.647907	916.053372	1109.790793	-764.806742	1031.552046	961.074738	-706.894229	994.003665	932.202844	-761.634387	
103	  0.858333	890.634440	1067.264590	-611.561959	876.779353	1075.341697	-351.337097	700.973401	1082.131540	-521.999700	695.570690	1077.753904	-439.806368	849.241329	899.798079	-295.325520	936.763734	815.192377	-307.403936	904.399483	686.237166	-340.007228	787.508272	857.915704	-661.424286	804.985101	731.327784	-649.010280	707.243976	638.591187	-634.820285	1057.799164	417.480334	-422.819327	1058.420392	347.821657	-357.145666	1084.148671	252.816191	-423.849774	644.949306	404.182437	-579.692052	565.063077	356.788062	-630.393040	506.412055	257.421918	-565.639275	1003.702160	100.497415	-431.374619	1236.565020	 82.789365	-454.533726	1171.784793	 54.838884	-362.537586	333.214306	219.881115	-554.743420	505.941079	 65.438329	-528.790444	433.772676	 76.472719	-617.610772	830.477662	1526.637384	-655.616862	793.630018	1530.595097	-310.713722	873.036115	1486.912543	-444.058044	743.737409	1567.911569	-488.057108	765.431963	1420.330404	-240.732274	762.988632	1327.272158	-250.699068	687.718492	1318.752843	-238.196007	653.577444	1186.869386	-217.691775	653.171498	1182.005325	-290.579453	835.894305	1425.811877	-724.680224	862.645517	1357.281869	-711.509299	780.368465	1312.220427	-723.282773	828.516539	1154.979138	-759.818364	790.281984	1141.689660	-694.156130	688.463663	1103.279474	-170.918355	738.593757	920.492676	-178.240780	671.395780	929.225840	-147.394548	913.923429	1109.957956	-763.549227	1028.865275	960.563585	-706.492952	990.279600	931.589608	-761.028703	
104	  0.866667	891.909104	1067.808306	-610.759666	878.182624	1077.267124	-350.099608	702.176290	1082.668494	-521.132191	696.134165	1078.602073	-438.906631	850.829038	902.037744	-293.626787	939.039714	817.620011	-305.645344	906.311259	688.056364	-337.587318	791.484751	857.432764	-660.056188	810.688070	730.775350	-648.217504	714.439103	636.862018	-634.451914	1055.523868	417.828515	-422.478233	1055.555785	348.132156	-357.061757	1078.377424	252.776807	-423.609393	651.300617	403.556891	-580.506384	569.446178	358.876898	-630.657580	508.721466	260.609748	-566.159585	993.914307	100.915943	-430.971916	1226.615185	 81.400191	-455.175477	1162.014158	 54.273367	-362.021386	336.048024	230.015781	-553.534287	498.245641	 65.156535	-528.251172	426.614709	 80.694073	-616.751518	830.274825	1527.744238	-654.266095	794.258741	1531.648144	-309.189039	873.655037	1488.398340	-442.629391	744.121421	1568.909890	-486.375422	766.792985	1421.180746	-239.164632	765.082944	1328.011977	-248.909319	689.934694	1318.989724	-236.298416	656.850686	1186.956951	-215.562078	656.180352	1182.034648	-288.430984	835.111384	1426.797779	-723.255361	861.821368	1358.235344	-710.210681	779.278530	1313.346154	-721.106937	826.610595	1155.973941	-757.948586	788.795172	1142.794485	-692.025671	692.050109	1103.564406	-168.748488	742.520189	920.892098	-175.784682	675.222095	929.449026	-145.097235	911.599187	1110.323723	-762.157050	1025.895372	960.223928	-706.038200	986.192745	931.059242	-760.423113	
105	  0.875000	893.128233	1068.385693	-610.135242	879.319293	1079.336108	-348.691602	703.340131	1083.250093	-520.450127	696.766801	1079.443165	-438.124398	852.202974	904.324279	-291.880253	940.725305	819.779584	-303.924242	907.441061	689.652368	-335.358078	795.504367	857.095092	-658.846120	816.590402	730.305677	-647.522998	722.037759	635.007167	-634.280517	1052.704594	418.209511	-421.711720	1052.194133	348.487491	-356.550886	1072.270646	252.856507	-423.155771	658.532626	402.778237	-581.443858	574.868834	360.781761	-631.028144	511.987338	263.754062	-566.764267	984.002757	101.223948	-430.466064	1216.471683	 80.870023	-455.516872	1152.062683	 53.995443	-361.344793	340.559292	240.513240	-552.559792	490.892489	 65.244368	-527.914719	419.989292	 85.473824	-615.923224	830.119968	1529.055728	-652.952368	794.998906	1532.866207	-307.701464	874.243345	1489.994135	-441.257117	744.515429	1570.014417	-484.714377	768.230762	1422.240282	-237.616414	767.267182	1328.951634	-247.130849	692.257641	1319.406125	-234.411612	660.209938	1187.255375	-213.482166	659.281984	1182.276690	-286.312344	834.246788	1427.982445	-721.841402	860.887764	1359.377061	-708.962826	778.078989	1314.674526	-718.888592	824.533836	1157.196489	-756.040951	787.377475	1144.099297	-689.878437	695.823206	1104.118079	-166.593054	746.731767	921.582380	-173.237234	679.347115	929.925836	-142.724185	909.087431	1110.884569	-760.675344	1022.505265	959.820298	-705.597530	981.777939	930.639545	-759.815785	
106	  0.883333	894.271730	1069.018287	-609.751487	880.283957	1081.494255	-347.181007	704.465260	1083.914548	-520.015293	697.577658	1080.334007	-437.381348	853.332737	906.512609	-290.133185	941.530093	821.393944	-302.291318	907.535209	690.996182	-333.480348	799.518305	856.674304	-657.636676	822.517130	729.926016	-646.959425	729.907441	633.070953	-634.177556	1049.269563	418.426769	-420.638883	1048.176537	348.706273	-355.655737	1065.718924	252.830220	-422.498037	666.510319	401.910848	-582.414997	581.193831	362.591250	-631.433783	516.101149	266.899305	-567.436168	973.961169	101.417010	-429.860457	1206.241303	 80.661998	-455.541162	1141.946699	 53.732291	-360.588284	346.722491	251.340152	-551.990313	484.118391	 65.956821	-527.952371	414.143228	 90.975614	-615.335856	830.045204	1530.518402	-651.649596	795.855723	1534.193466	-306.250299	874.818049	1491.586262	-439.951569	744.897071	1571.164153	-483.084890	769.754492	1423.455157	-236.089226	769.515127	1330.043762	-245.377628	694.678701	1319.982369	-232.530070	663.585893	1187.736204	-211.452000	662.484672	1182.701168	-284.252722	833.379619	1429.336313	-720.429980	859.884670	1360.667060	-707.747871	776.784157	1316.189330	-716.637536	822.276132	1158.601856	-754.093451	785.783546	1145.688333	-687.719601	699.702275	1104.918850	-164.458558	751.226158	922.548571	-170.645949	683.783648	930.641755	-140.260485	906.401379	1111.618037	-759.166237	1018.672835	959.253062	-705.246524	977.086863	930.362848	-759.215790	
107	  0.891667	895.239804	1069.752867	-609.551710	881.163969	1083.674856	-345.656416	705.437114	1084.700386	-519.759130	698.532170	1081.373468	-436.647626	854.151492	908.519241	-288.442425	941.396525	822.418779	-300.664714	906.587119	692.158097	-331.955342	803.433785	856.012996	-656.325296	828.366752	729.613791	-646.575630	737.959903	631.096354	-634.027954	1045.227542	418.364539	-419.479892	1043.405354	348.672220	-354.543072	1058.672268	252.604164	-421.715940	675.114110	401.081425	-583.330964	588.284761	364.463654	-631.823757	521.007792	270.135077	-568.145117	963.805310	101.522651	-429.216032	1196.010599	 80.380100	-455.354794	1131.708139	 53.366739	-359.835114	354.452746	262.424268	-551.887098	478.171981	 67.568012	-528.404355	409.405060	 97.421184	-615.103780	830.054145	1532.050399	-650.315989	796.819247	1535.583042	-304.849096	875.399306	1493.061178	-438.711015	745.246720	1572.327054	-481.499175	771.374411	1424.763846	-234.584469	771.797023	1331.232794	-243.690857	697.176144	1320.690325	-230.640861	666.915305	1188.359897	-209.436520	665.742474	1183.260509	-282.241741	832.578158	1430.813789	-719.023768	858.846463	1362.046755	-706.538393	775.410684	1317.859553	-714.355509	819.827871	1160.118652	-752.114086	783.768646	1147.557860	-685.505384	703.621212	1105.917354	-162.341901	755.994743	923.744908	-168.085325	688.534754	931.562450	-137.710981	903.545521	1112.476917	-757.697962	1014.497643	958.597536	-705.013127	972.171178	930.239048	-758.637527	
